<svg width="24" height="18" viewBox="0 0 24 18" fill="currentColor" xmlns="http://www.w3.org/2000/svg">
<path fill-rule="evenodd" clip-rule="evenodd" d="M6.69103 0H21.8987C22.9443 0 23.7997 0.855208 23.7997 1.90099V6.51469H20.4278C20.3482 4.75034 18.8923 3.33861 17.1089 3.33861H4.79004V1.90099C4.79004 0.855208 5.64548 0 6.69103 0ZM21.8987 11.8812H20.4357V9.07343H23.7997V9.9802C23.7997 11.0257 22.9443 11.8812 21.8987 11.8812Z"/>
<path fill-rule="evenodd" clip-rule="evenodd" d="M1.90099 4.76434H17.1089C18.1545 4.76434 19.0099 5.61955 19.0099 6.66533V14.7445C19.0099 15.7903 18.1545 16.6455 17.1089 16.6455H1.90099C0.855446 16.6455 0 15.7903 0 14.7445V6.66533C0 5.61955 0.855446 4.76434 1.90099 4.76434ZM4.42836 10.1185C4.68974 10.1185 4.9036 9.90438 4.9036 9.64323V7.84656C4.9036 7.58541 4.68974 7.37131 4.42836 7.37131H2.77236C2.51097 7.37131 2.29711 7.58541 2.29711 7.84656V9.64323C2.29711 9.90438 2.51097 10.1185 2.77236 10.1185H4.42836ZM6.12451 13.9209H8.976V13.1895H6.12451V13.9209ZM13.0156 13.9209H10.1641V13.1895H13.0156V13.9209ZM16.8176 13.9209H13.9661V13.1895H16.8176V13.9209ZM2.32253 13.9209H5.17402V13.1895H2.32253V13.9209Z"/>
</svg>
