<svg width="24" height="27" viewBox="0 0 24 27" fill="currentColor" xmlns="http://www.w3.org/2000/svg">
<path fill-rule="evenodd" clip-rule="evenodd" d="M22.3131 22.5825C22.3032 22.5828 22.2935 22.5835 22.2839 22.5842C22.2722 22.5851 22.2605 22.586 22.2485 22.586H17.6064C16.136 22.586 14.9397 21.3895 14.9397 19.9193V18.7193C14.9397 17.2489 16.136 16.0527 17.6064 16.0527H22.2485C22.2606 16.0527 22.2724 16.0535 22.2842 16.0543C22.2938 16.055 22.3033 16.0556 22.3131 16.0559C22.3215 16.0555 22.33 16.055 22.3385 16.0544C22.3514 16.0535 22.3644 16.0527 22.3776 16.0527H22.7819V12.134H3.1688L3.1656 12.1337H2.3688C2.2224 12.1337 2.10213 12.0137 2.10213 11.8671L2.1016 11.386C2.1016 11.382 2.10269 11.3783 2.10377 11.3747C2.1047 11.3716 2.10562 11.3685 2.10587 11.3652C2.10562 11.3605 2.10476 11.3559 2.1039 11.3514C2.10288 11.3459 2.10187 11.3405 2.10187 11.3351C2.1016 10.8956 2.58133 10.5359 3.16827 10.5359H8.1496C8.21067 10.1007 8.2984 9.62199 8.4216 9.11932H2.66667C1.2 9.11932 0 10.3193 0 11.786V23.8177C0 25.2844 1.2 26.4844 2.66667 26.4844H22.2485C22.5416 26.4844 22.7819 26.2441 22.7819 25.9511V22.586H22.3776C22.3647 22.586 22.3519 22.5851 22.3392 22.5841C22.3305 22.5835 22.3218 22.5829 22.3131 22.5825ZM14.3525 10.5359C14.8755 10.2324 15.448 9.97666 16.0645 9.82012V10.5359H14.3525ZM17.3824 19.3193C17.3824 19.7604 17.7413 20.1193 18.1824 20.1193C18.6245 20.1193 18.9824 19.7604 18.9824 19.3193C18.9824 18.878 18.6245 18.5193 18.1824 18.5193C17.7413 18.5193 17.3824 18.878 17.3824 19.3193ZM22.3776 17.1193H22.7819C23.3683 17.1193 23.8485 17.5993 23.8485 18.186V20.4527C23.8485 21.0393 23.3683 21.5193 22.7819 21.5193H22.3776C22.3696 21.5193 22.362 21.5182 22.3543 21.517C22.3478 21.516 22.3412 21.515 22.3344 21.5148L22.3076 21.5166L22.3076 21.5166C22.2881 21.5179 22.2686 21.5193 22.2491 21.5193H17.6064C16.7267 21.5193 16.0064 20.7993 16.0064 19.9193V18.7193C16.0064 17.8393 16.7267 17.1193 17.6064 17.1193H22.2491C22.2694 17.1193 22.2896 17.1207 22.3098 17.122L22.3344 17.1236C22.3412 17.1233 22.3477 17.1224 22.3542 17.1215C22.3619 17.1204 22.3695 17.1193 22.3776 17.1193ZM21.8525 9.11932H22.2485C22.5416 9.11932 22.7819 9.35932 22.7819 9.65266V10.5359H20.5683L21.8525 9.11932Z" />
<path fill-rule="evenodd" clip-rule="evenodd" d="M17.4043 8.04867C17.4944 8.04867 17.5803 8.04681 17.6646 8.04441V10.8228C17.6646 11.1161 17.8256 11.1783 18.023 10.9612L22.6328 5.87641C22.8299 5.65934 22.8278 5.30547 22.6288 5.09027L18.0272 0.127339C17.8278 -0.0878611 17.6646 -0.0235945 17.6646 0.269472V3.44787C17.5798 3.44467 17.4944 3.44227 17.4043 3.44227C11.1526 3.44227 9.90535 8.79294 9.66455 11.3372H10.8632C12.1331 9.96547 14.4371 8.04867 17.4043 8.04867Z"/>
</svg>
