<svg width="32" height="32" viewBox="0 0 32 32" fill="none" xmlns="http://www.w3.org/2000/svg">
<path fill-rule="evenodd" clip-rule="evenodd" d="M32 5.33333C32 2.38781 29.6122 0 26.6667 0H5.33333C2.38781 0 0 2.38781 0 5.33333V26.6667C0 29.6122 2.38781 32 5.33333 32H26.6667C29.6122 32 32 29.6122 32 26.6667V5.33333ZM5.33333 1.33333H26.6667L26.9017 1.34012C29.0014 1.46179 30.6667 3.20309 30.6667 5.33333V26.6667L30.6599 26.9017C30.5382 29.0014 28.7969 30.6667 26.6667 30.6667H5.33333L5.0983 30.6599C2.99856 30.5382 1.33333 28.7969 1.33333 26.6667V5.33333L1.34012 5.0983C1.46179 2.99856 3.20309 1.33333 5.33333 1.33333Z" fill="#8397AB" fill-opacity="0.36"/>
<path fill-rule="evenodd" clip-rule="evenodd" d="M20.4872 14.9744V19.0769L22.1282 20.7179V21.5385H9V20.7179L10.641 19.0769V14.9744C10.641 12.4472 11.9785 10.3467 14.3333 9.78872V9.23077C14.3333 8.54974 14.8831 8 15.5641 8C16.2451 8 16.7949 8.54974 16.7949 9.23077V9.78872C19.1415 10.3467 20.4872 12.4554 20.4872 14.9744ZM17.2051 22.359C17.2051 23.2615 16.4667 24 15.5641 24C14.6533 24 13.9231 23.2615 13.9231 22.359H17.2051Z" fill="#8397AB"/>
</svg>
